# xmcd
#
# Track frame offsets: 
#        150
#        15795
#        33502
#        56167
#        73043
#        88846
#        107906
#        122181
#        141174
#        159819
#        181219
#
# Disc length: 2671 seconds
#
# Revision: 1
# Processed by: cddbd v1.5.2PL0 Copyright (c) Steve Scherf et al.
# Submitted via: ExactAudioCopy v1.3
#
DISCID=8f0a6d0b
DTITLE=Rin' - ??
DYEAR=2004
DGENRE=Other
TTITLE0=??
TTITLE1=Sakitama????
TTITLE2=?????
TTITLE3=??
TTITLE4=?
TTITLE5=weakness
TTITLE6=??
TTITLE7=Smile on -English ver.-
TTITLE8=Will
TTITLE9=????
TTITLE10=Eternal
EXTD=YEAR: 2004
EXTT0=
EXTT1=
EXTT2=
EXTT3=
EXTT4=
EXTT5=
EXTT6=
EXTT7=
EXTT8=
EXTT9=
EXTT10=
PLAYORDER=
